<svg fill="none" xmlns="http://www.w3.org/2000/svg" viewBox="0 0 782 470"><path d="M1 1.644v467.227M20.307 1.644v467.227M40.258 1.644v467.227M59.565 1.644v467.227M78.872 1.644v467.227M98.179 1.644v467.227M117.486 1.644v467.227M136.792 1.644v467.227" stroke="#4C57C5" stroke-opacity=".6" stroke-miterlimit="10" stroke-linecap="square"/><path d="M781 313.772H156.744M781 333.079H156.744M781 352.386H156.744M781 371.693H156.744M781 391.643H156.744M781 410.95H156.744M781 430.257H156.744M781 449.563H156.744" stroke="#4C57C5" stroke-opacity=".6" stroke-miterlimit="10"/><path d="M781 468.871H156.744V1.644" stroke="#4C57C5" stroke-opacity=".6" stroke-miterlimit="10" stroke-linecap="square"/><path d="M312.485 313.772c86.37 0 156.386-70.017 156.386-156.386C468.871 71.016 398.855 1 312.485 1c-86.369 0-156.386 70.016-156.386 156.386 0 86.369 70.017 156.386 156.386 156.386Z" stroke="#4C57C5" stroke-opacity=".6" stroke-miterlimit="10"/><path d="M624.613 313.772c86.37 0 156.386-70.017 156.386-156.386C780.999 71.016 710.983 1 624.613 1c-86.369 0-156.385 70.016-156.385 156.386 0 86.369 70.016 156.386 156.385 156.386ZM312.051 10.75c0 136.941 9.333 146.279 146.224 146.279-136.891 0-146.224 9.332-146.224 146.221 0-136.889-9.334-146.221-146.276-146.221 136.942 0 146.276-9.338 146.276-146.279Z" stroke="#4C57C5" stroke-opacity=".6" stroke-miterlimit="10"/><path d="M625.026 10.75c0 136.941 9.333 146.279 146.224 146.279-136.891 0-146.224 9.332-146.224 146.221 0-136.889-9.334-146.221-146.276-146.221 136.942 0 146.276-9.338 146.276-146.279Z" stroke="#4C57C5" stroke-opacity=".6" stroke-miterlimit="10"/></svg>