<?xml version="1.0" encoding="UTF-8"?>
<svg width="140px" height="40px" viewBox="0 0 140 40" version="1.1" xmlns="http://www.w3.org/2000/svg" xmlns:xlink="http://www.w3.org/1999/xlink">
    <title>nextjs-logo</title>
    <g id="nextjs-logo" stroke="none" stroke-width="1" fill="none" fill-rule="evenodd" fill-opacity="0.8">
        <g id="nextjs" transform="translate(37.000000, 0.000000)" fill="#000000" fill-rule="nonzero">
            <path d="M15.5804085,10.389276 L27.923103,10.389276 L27.923103,11.3791095 L16.71183,11.3791095 L16.71183,18.82881 L27.2545785,18.82881 L27.2545785,19.8186435 L16.71183,19.8186435 L16.71183,27.997659 L28.051695,27.997659 L28.051695,28.9874925 L15.5804085,28.9874925 L15.5804085,10.389276 Z M29.0288745,10.389276 L30.3402735,10.389276 L36.151623,18.5682915 L42.0915645,10.389276 L50.170887,0 L36.897354,19.4279085 L43.7372685,28.9874925 L42.374484,28.9874925 L36.151623,20.28744 L29.903112,28.9874925 L28.5659775,28.9874925 L35.457363,19.4279085 L29.0288745,10.389276 Z M44.225901,11.3791095 L44.225901,10.389276 L58.291506,10.389276 L58.291506,11.3791095 L51.8115465,11.3791095 L51.8115465,28.9874925 L50.680125,28.9874925 L50.680125,11.3791095 L44.225901,11.3791095 Z" id="Shape"></path>
            <polygon id="Path" points="0.138603195 10.3891905 1.55287665 10.3891905 21.054888 39.833937 12.995658 28.987407 1.3214538 11.7958365 1.27002555 28.987407 0.138603195 28.987407"></polygon>
            <path d="M58.177962,27.698922 C58.41189,27.698922 58.5824625,27.518175 58.5824625,27.2846745 C58.5824625,27.051174 58.41189,26.870427 58.177962,26.870427 C57.9468555,26.870427 57.7734615,27.051174 57.7734615,27.2846745 C57.7734615,27.518175 57.9468555,27.698922 58.177962,27.698922 Z M59.2897185,26.6090535 C59.2897185,27.298611 59.782284,27.7489395 60.5005695,27.7489395 C61.265538,27.7489395 61.727922,27.2846745 61.727922,26.4784095 L61.727922,23.639895 L61.111467,23.639895 L61.111467,26.4756735 C61.111467,26.923266 60.8885685,27.162324 60.495012,27.162324 C60.1428375,27.162324 59.9034375,26.9399385 59.895144,26.6090535 L59.2897185,26.6090535 Z M62.534187,26.5729725 C62.5782195,27.290232 63.1698795,27.7489395 64.050444,27.7489395 C64.991628,27.7489395 65.580552,27.268002 65.580552,26.5006395 C65.580552,25.8973515 65.2447935,25.5637305 64.430235,25.371954 L63.992646,25.2634545 C63.4752855,25.1411895 63.2661525,24.977115 63.2661525,24.6907755 C63.2661525,24.329367 63.5908815,24.093045 64.077975,24.093045 C64.5402735,24.093045 64.8595305,24.3238095 64.9173285,24.6935115 L65.5171965,24.6935115 C65.4814575,24.017976 64.8925335,23.542596 64.0862685,23.542596 C63.219384,23.542596 62.6414895,24.017976 62.6414895,24.7324995 C62.6414895,25.321851 62.9689545,25.6721445 63.68724,25.8417765 L64.199043,25.966863 C64.724697,26.0919495 64.9558035,26.2754325 64.9558035,26.581266 C64.9558035,26.937117 64.5925995,27.195669 64.0972125,27.195669 C63.566172,27.195669 63.1974105,26.953875 63.1450845,26.5729725 L62.534187,26.5729725 Z" id="Shape"></path>
        </g>
    </g>
</svg>