<?xml version="1.0" encoding="UTF-8"?>
<svg width="140px" height="40px" viewBox="0 0 140 40" version="1.1" xmlns="http://www.w3.org/2000/svg" xmlns:xlink="http://www.w3.org/1999/xlink">
    <title>github-logo</title>
    <g id="github-logo" stroke="none" stroke-width="1" fill="none" fill-rule="evenodd" fill-opacity="0.8">
        <g id="Group" transform="translate(27.000000, 7.000000)" fill="#000000">
            <path d="M16.2954471,10.1900645 L9.21474693,10.1900645 C9.0320388,10.1900645 8.88395399,10.3397916 8.88395399,10.5247626 L8.88395399,14.0250184 C8.88395399,14.2095163 9.0320388,14.359953 9.21474693,14.359953 L11.9768914,14.359953 L11.9768914,18.7086625 C11.9768914,18.7086625 11.3567131,18.9224908 9.64192367,18.9224908 C7.61903359,18.9224908 4.79302317,18.1752744 4.79302317,11.8919391 C4.79302317,5.60742112 7.73577028,4.78049218 10.4983826,4.78049218 C12.8899641,4.78049218 13.9200075,5.20601997 14.5757449,5.41133299 C14.7818471,5.47496111 14.9722753,5.2677558 14.9722753,5.08278485 L15.762061,1.70103342 C15.762061,1.61446134 15.7330523,1.51014908 15.6357327,1.43966143 C15.3695075,1.24759441 13.7452534,0.328653075 9.64192367,0.328653075 C4.9151405,0.328653075 0.06624,2.36191427 0.06624,12.1369901 C0.06624,21.912066 5.61766611,23.3686531 10.2957895,23.3686531 C14.1691549,23.3686531 16.518861,21.6951627 16.518861,21.6951627 C16.6157126,21.6409961 16.62624,21.5042784 16.62624,21.4415964 L16.62624,10.5247626 C16.62624,10.3397916 16.4781552,10.1900645 16.2954471,10.1900645" id="Fill-11"></path>
            <path d="M53.34624,2.10241599 C53.34624,1.91769629 53.1970992,1.76865307 53.0101951,1.76865307 L48.9370249,1.76865307 C48.7510769,1.76865307 48.599785,1.91769629 48.599785,2.10241599 C48.599785,2.10335485 48.60098,9.83271254 48.60098,9.83271254 L42.251739,9.83271254 L42.251739,2.10241599 C42.251739,1.91769629 42.1021201,1.76865307 41.9156941,1.76865307 L37.8427629,1.76865307 C37.6575319,1.76865307 37.50624,1.91769629 37.50624,2.10241599 L37.50624,23.0337166 C37.50624,23.2184363 37.6575319,23.3686531 37.8427629,23.3686531 L41.9156941,23.3686531 C42.1021201,23.3686531 42.251739,23.2184363 42.251739,23.0337166 L42.251739,14.0807963 L48.60098,14.0807963 C48.60098,14.0807963 48.5897467,23.0330124 48.5897467,23.0337166 C48.5897467,23.2184363 48.7407996,23.3686531 48.9272256,23.3686531 L53.0099561,23.3686531 C53.1966211,23.3686531 53.345762,23.2184363 53.34624,23.0337166 L53.34624,2.10241599" id="Fill-13"></path>
            <path d="M23.82624,4.28797193 C23.82624,2.89458154 22.6981625,1.76865307 21.3061253,1.76865307 C19.9154642,1.76865307 18.78624,2.89458154 18.78624,4.28797193 C18.78624,5.679773 19.9154642,6.80865307 21.3061253,6.80865307 C22.6981625,6.80865307 23.82624,5.679773 23.82624,4.28797193" id="Fill-14"></path>
            <path d="M23.10624,18.5000473 C23.10624,17.9497564 23.10624,8.59071927 23.10624,8.59071927 C23.10624,8.40247454 22.9690868,8.24865307 22.7997645,8.24865307 L19.1070611,8.24865307 C18.9377389,8.24865307 18.78624,8.4421937 18.78624,8.63043843 C18.78624,8.63043843 18.78624,20.5543702 18.78624,22.8272689 C18.78624,23.2444404 19.0209872,23.3686531 19.324637,23.3686531 C19.324637,23.3686531 20.9009208,23.3686531 22.651526,23.3686531 C23.0166883,23.3686531 23.10624,23.1700573 23.10624,22.8205287 C23.10624,22.0596059 23.10624,19.0785026 23.10624,18.5000473" id="Fill-15"></path>
            <path d="M68.131012,8.24865307 L64.1302774,8.24865307 C63.9469311,8.24865307 63.7974151,8.39840245 63.7974151,8.58260121 L63.7974151,18.8300049 C63.7974151,18.8300049 62.7808486,19.5665656 61.3382089,19.5665656 C59.8958058,19.5665656 59.513026,18.9181204 59.513026,17.5190534 C59.513026,16.1181117 59.513026,8.58260121 59.513026,8.58260121 C59.513026,8.39840245 59.3639832,8.24865307 59.1801637,8.24865307 L55.1195754,8.24865307 C54.9364657,8.24865307 54.78624,8.39840245 54.78624,8.58260121 C54.78624,8.58260121 54.78624,14.0396653 54.78624,18.1956206 C54.78624,22.3518103 57.124556,23.3686531 60.3412781,23.3686531 C62.9805186,23.3686531 65.108282,21.9243567 65.108282,21.9243567 C65.108282,21.9243567 65.2095365,22.6855241 65.2554322,22.7757487 C65.3010914,22.8657389 65.4205622,22.9566665 65.5497326,22.9566665 L68.1329046,22.9451834 C68.3160143,22.9451834 68.46624,22.7951997 68.46624,22.611704 L68.4648205,8.58260121 C68.4648205,8.39840245 68.3155412,8.24865307 68.131012,8.24865307" id="Fill-16"></path>
            <path d="M77.6897693,20.2327529 C76.2791316,20.1903882 75.3222738,19.556822 75.3222738,19.556822 L75.3222738,12.8353556 C75.3222738,12.8353556 76.2661458,12.2627183 77.4242828,12.1603767 C78.8887874,12.0306646 80.2999061,12.4683537 80.2999061,15.9260734 C80.2999061,19.5720542 79.6631232,20.2917778 77.6897693,20.2327529 Z M79.2937506,8.27425 C76.9839695,8.27425 75.4129336,9.29433446 75.4129336,9.29433446 L75.4129336,2.10709453 C75.4129336,1.91978551 75.2614331,1.76865307 75.074823,1.76865307 L70.9648315,1.76865307 C70.777981,1.76865307 70.62624,1.91978551 70.62624,2.10709453 L70.62624,23.3318009 C70.62624,23.5191099 70.777981,23.6714323 70.9653125,23.6714323 C70.9657934,23.6714323 73.8159262,23.6714323 73.8168881,23.6714323 C73.9453028,23.6714323 74.0424555,23.6059813 74.1143581,23.4912634 C74.1852988,23.3772596 74.2875015,22.5125917 74.2875015,22.5125917 C74.2875015,22.5125917 75.9679544,24.0886531 79.1492239,24.0886531 C82.8843118,24.0886531 85.02624,22.2136588 85.02624,15.6716473 C85.02624,9.12915979 81.605215,8.27425 79.2937506,8.27425 L79.2937506,8.27425 Z" id="Fill-17"></path>
            <path d="M34.9712221,8.14243174 L32.0638665,8.14243174 C32.0638665,8.14243174 32.0595455,4.15578677 32.0595455,4.15507845 C32.0595455,4.0039708 31.9844964,3.92865307 31.816432,3.92865307 L27.8547507,3.92865307 C27.700559,3.92865307 27.618005,3.99901258 27.618005,4.1527174 L27.618005,8.2732343 C27.618005,8.2732343 25.6326159,8.77094515 25.4982099,8.81108312 C25.3647135,8.85122109 25.26624,8.97919039 25.26624,9.13195078 L25.26624,11.7213221 C25.26624,11.9076095 25.4095155,12.0577728 25.5866768,12.0577728 L27.618005,12.0577728 C27.618005,12.0577728 27.618005,14.7661414 27.618005,18.2871859 C27.618005,22.9141496 30.74414,23.3686531 32.8534737,23.3686531 C33.8175132,23.3686531 34.9705398,23.0473132 35.1608915,22.9743565 C35.2759668,22.9304409 35.3428287,22.8064854 35.3428287,22.6723773 L35.34624,19.823998 C35.34624,19.6381828 35.1950047,19.4877835 35.0248935,19.4877835 C34.8552371,19.4877835 34.4219993,19.5593235 33.9757985,19.5593235 C32.5475919,19.5593235 32.0638665,18.8698948 32.0638665,17.9776513 C32.0638665,17.0861162 32.0636391,12.0577728 32.0636391,12.0577728 L34.9712221,12.0577728 C35.1483834,12.0577728 35.2918863,11.9076095 35.2918863,11.7213221 L35.2918863,8.47793796 C35.2918863,8.29212276 35.1483834,8.14243174 34.9712221,8.14243174" id="Fill-18"></path>
        </g>
    </g>
</svg>