<?xml version="1.0" encoding="UTF-8"?>
<svg fill="none" viewBox="0 0 40 40" version="1.1" xmlns="http://www.w3.org/2000/svg" xmlns:xlink="http://www.w3.org/1999/xlink" preserveAspectRatio="xMidYMid">
    <g fill="#FF364E">
        <path d="m7.41994 0c-1.96776 0-3.85505.760564-5.24646 2.11419-1.391419 1.35363-2.17299 3.18944-2.17299 5.10375v10.77276c-.00076241.887.252193 1.7572.730442 2.5124.478248.7553 1.162868 1.3661 1.977588 1.7644l9.59898 4.7095v-14.9681h15.3862l12.2884-11.972775z"></path>
        <path d="m32.5621 40c1.9678 0 3.8551-.7863 5.2465-2.1866 1.3915-1.4003 2.173-3.2999 2.173-5.2802v-11.1442c-.0003-.9175-.2536-1.8167-.7318-2.5978-.4781-.7811-1.1622-1.4132-1.9762-1.8261l-9.5991-4.8723v15.4842h-15.386l-12.2885 12.3856z"></path>
    </g>
</svg>