<?xml version="1.0" encoding="UTF-8"?>
<svg viewBox="0 0 2500 1500" version="1.1" xmlns="http://www.w3.org/2000/svg" xmlns:xlink="http://www.w3.org/1999/xlink" preserveAspectRatio="xMidYMid">
    <title>logomark-tailwind-black</title>
    <g id="Page-1" stroke="none" stroke-width="1" fill="none" fill-rule="evenodd">
        <g id="logomark-tailwind-black" fill="#000000" fill-rule="nonzero">
            <path
                d="M1250,0 C916.669922,0 708.330078,166.669922 625,500 C750,333.330078 895.830078,270.830078 1062.5,312.5 C1157.58789,336.269531 1225.55664,405.263672 1300.79102,481.621094 C1423.34961,606.025391 1565.18555,750 1875,750 C2208.33008,750 2416.66992,583.330078 2500,250 C2375,416.669922 2229.16992,479.169922 2062.5,437.5 C1967.41211,413.730469 1899.44336,344.736328 1824.20898,268.378906 C1701.65039,143.974609 1559.81445,0 1250,0 Z M625,750 C291.669922,750 83.3300781,916.669922 0,1250 C125,1083.33008 270.830078,1020.83008 437.5,1062.5 C532.587891,1086.26953 600.556641,1155.26367 675.791016,1231.62109 C798.349609,1356.02539 940.185547,1500 1250,1500 C1583.33008,1500 1791.66992,1333.33008 1875,1000 C1750,1166.66992 1604.16992,1229.16992 1437.5,1187.5 C1342.41211,1163.73047 1274.44336,1094.73633 1199.20898,1018.37891 C1076.65039,893.974609 934.814453,750 625,750 Z"
                id="Shape"
            ></path>
        </g>
    </g>
</svg>