<svg width="16" height="16" viewBox="0 0 16 16" fill="none" xmlns="http://www.w3.org/2000/svg">
<path d="M2.95776 0C2.17429 -1.42175e-06 1.42271 0.310967 0.86818 0.864626C0.313655 1.41828 0.00149232 2.16939 0 2.95313V7.38847C0.00108409 7.75418 0.10301 8.11248 0.294895 8.42377C0.48678 8.73507 0.760978 8.98726 1.08715 9.15246L4.92382 11.0856V4.92564H11.0872L16 0H2.95776Z" fill="#FF364E"/>
<path d="M13.0477 16.0001C13.8312 15.9986 14.5822 15.6862 15.1357 15.1315C15.6891 14.5767 16 13.825 16 13.0413V8.60596C16.001 8.24125 15.9003 7.88347 15.7092 7.57286C15.5181 7.26224 15.2443 7.0111 14.9183 6.84761L11.0759 4.90887V11.0688H4.91831L0 16.0001H13.0477Z" fill="#FF364E"/>
</svg>
