<svg width="240" height="200" fill="none" xmlns="http://www.w3.org/2000/svg"><path d="M117.968 88.728c.368.08.72.168 1.056.264.336.08.664.184.984.312V90h-6.312v-.696c.352-.16.688-.28 1.008-.36.32-.08.64-.152.96-.216V74.496c-.416-.08-.784-.168-1.104-.264-.32-.112-.608-.224-.864-.336V73.2h2.112c.64 0 1.336-.032 2.088-.096a26.89 26.89 0 0 1 2.232-.096 8.6 8.6 0 0 1 2.184.264c.688.176 1.28.456 1.776.84.496.384.88.872 1.152 1.464.288.592.432 1.304.432 2.136 0 1.168-.312 2.136-.936 2.904-.608.768-1.44 1.32-2.496 1.656a81.367 81.367 0 0 0 2.16 3.24 85.895 85.895 0 0 0 2.352 3.192l1.296.696v.6h-2.904l-.912-.672a30.95 30.95 0 0 1-1.224-1.632 30.639 30.639 0 0 1-1.032-1.632c-.32-.56-.624-1.12-.912-1.68-.272-.576-.552-1.184-.84-1.824h-2.256v6.168Zm1.632-14.472c-.384 0-.704.008-.96.024-.24.016-.464.048-.672.096v7.176h1.728c1.104 0 1.976-.352 2.616-1.056.656-.704.984-1.632.984-2.784 0-1.184-.344-2.056-1.032-2.616-.688-.56-1.576-.84-2.664-.84ZM114.008 112.2a4.156 4.156 0 0 1-.672-.24 7.837 7.837 0 0 1-.6-.336V111h5.016v.6c-.336.224-.792.424-1.368.6l3.072 7.104.456 1.488h.048l.36-1.512 2.28-7.08a3.363 3.363 0 0 1-1.32-.576V111h4.104v.624c-.336.224-.792.416-1.368.576l-3.744 10.8c-.384 1.024-.752 1.848-1.104 2.472-.336.64-.68 1.144-1.032 1.512-.336.368-.688.632-1.056.792a4.435 4.435 0 0 1-1.152.384 7.37 7.37 0 0 1-.48-1.008c-.128-.368-.24-.72-.336-1.056l.312-.576h2.496c.096-.128.176-.256.24-.384.08-.112.16-.256.24-.432.08-.176.168-.4.264-.672s.208-.616.336-1.032l-4.992-10.8Z" fill="#fff"/><rect x="95.5" y="59.5" width="49" height="81" rx="19.5" stroke="#fff"/><path stroke="#fff" d="M109 99.5h22"/></svg>