<svg width="240" height="200" fill="none" xmlns="http://www.w3.org/2000/svg"><path d="M128.296 117.168c-1.12 0-2.128-.192-3.024-.576-.896-.4-1.6-.96-2.112-1.68s-.768-1.56-.768-2.52h2.928c.064.72.344 1.312.84 1.776.512.464 1.224.696 2.136.696.944 0 1.68-.224 2.208-.672.528-.464.792-1.056.792-1.776 0-.56-.168-1.016-.504-1.368a3.167 3.167 0 0 0-1.224-.816c-.48-.192-1.152-.4-2.016-.624-1.088-.288-1.976-.576-2.664-.864a4.508 4.508 0 0 1-1.728-1.392c-.48-.624-.72-1.456-.72-2.496 0-.96.24-1.8.72-2.52s1.152-1.272 2.016-1.656c.864-.384 1.864-.576 3-.576 1.616 0 2.936.408 3.96 1.224 1.04.8 1.616 1.904 1.728 3.312h-3.024c-.048-.608-.336-1.128-.864-1.56-.528-.432-1.224-.648-2.088-.648-.784 0-1.424.2-1.92.6-.496.4-.744.976-.744 1.728 0 .512.152.936.456 1.272.32.32.72.576 1.2.768.48.192 1.136.4 1.968.624 1.104.304 2 .608 2.688.912a4.349 4.349 0 0 1 1.776 1.416c.496.624.744 1.464.744 2.52 0 .848-.232 1.648-.696 2.4-.448.752-1.112 1.36-1.992 1.824-.864.448-1.888.672-3.072.672Zm12.18-11.16v7.32c0 .496.112.856.336 1.08.24.208.64.312 1.2.312h1.68V117h-2.16c-1.232 0-2.176-.288-2.832-.864-.656-.576-.984-1.512-.984-2.808v-7.32h-1.56v-2.232h1.56v-3.288h2.76v3.288h3.216v2.232h-3.216Zm4.826 4.32c0-1.328.272-2.504.816-3.528.56-1.024 1.312-1.816 2.256-2.376a6.042 6.042 0 0 1 3.168-.864c1.04 0 1.944.208 2.712.624.784.4 1.408.904 1.872 1.512v-1.92h2.76V117h-2.76v-1.968c-.464.624-1.096 1.144-1.896 1.56-.8.416-1.712.624-2.736.624a5.875 5.875 0 0 1-3.12-.864c-.944-.592-1.696-1.408-2.256-2.448-.544-1.056-.816-2.248-.816-3.576Zm10.824.048c0-.912-.192-1.704-.576-2.376-.368-.672-.856-1.184-1.464-1.536a3.862 3.862 0 0 0-1.968-.528c-.704 0-1.36.176-1.968.528-.608.336-1.104.84-1.488 1.512-.368.656-.552 1.44-.552 2.352 0 .912.184 1.712.552 2.4.384.688.88 1.216 1.488 1.584.624.352 1.28.528 1.968.528.704 0 1.36-.176 1.968-.528.608-.352 1.096-.864 1.464-1.536.384-.688.576-1.488.576-2.4Zm9.09-4.68c.4-.672.928-1.192 1.584-1.56.672-.384 1.464-.576 2.376-.576v2.832h-.696c-1.072 0-1.888.272-2.448.816-.544.544-.816 1.488-.816 2.832V117h-2.736v-13.224h2.736v1.92Zm9.667.312v7.32c0 .496.112.856.336 1.08.24.208.64.312 1.2.312h1.68V117h-2.16c-1.232 0-2.176-.288-2.832-.864-.656-.576-.984-1.512-.984-2.808v-7.32h-1.56v-2.232h1.56v-3.288h2.76v3.288h3.216v2.232h-3.216Zm17.713-2.232V117h-2.736v-1.56c-.432.544-1 .976-1.704 1.296a5.402 5.402 0 0 1-2.208.456c-1.04 0-1.976-.216-2.808-.648-.816-.432-1.464-1.072-1.944-1.92-.464-.848-.696-1.872-.696-3.072v-7.776h2.712v7.368c0 1.184.296 2.096.888 2.736.592.624 1.4.936 2.424.936s1.832-.312 2.424-.936c.608-.64.912-1.552.912-2.736v-7.368h2.736Zm6.346 1.944c.464-.608 1.096-1.12 1.896-1.536.8-.416 1.704-.624 2.712-.624 1.152 0 2.2.288 3.144.864.96.56 1.712 1.352 2.256 2.376.544 1.024.816 2.2.816 3.528 0 1.328-.272 2.52-.816 3.576-.544 1.04-1.296 1.856-2.256 2.448-.944.576-1.992.864-3.144.864-1.008 0-1.904-.2-2.688-.6-.784-.416-1.424-.928-1.92-1.536v8.208h-2.736v-19.512h2.736v1.944Zm8.04 4.608c0-.912-.192-1.696-.576-2.352-.368-.672-.864-1.176-1.488-1.512a3.862 3.862 0 0 0-1.968-.528c-.688 0-1.344.176-1.968.528-.608.352-1.104.864-1.488 1.536-.368.672-.552 1.464-.552 2.376 0 .912.184 1.712.552 2.4.384.672.88 1.184 1.488 1.536.624.352 1.28.528 1.968.528.704 0 1.36-.176 1.968-.528.624-.368 1.12-.896 1.488-1.584.384-.688.576-1.488.576-2.4Z" fill="#fff"/><rect x="29" y="83" width="50" height="13" rx="6.5" fill="#fff"/><rect x="46" y="101" width="50" height="13" rx="6.5" fill="#fff"/><rect x="29" y="121" width="50" height="13" rx="6.5" fill="#fff"/></svg>