<svg width="240" height="200" fill="none" xmlns="http://www.w3.org/2000/svg"><path d="M117.2 114.288c-1.36 0-2.528-.36-3.504-1.08-.976-.72-1.728-1.728-2.256-3.024-.512-1.312-.768-2.84-.768-4.584 0-1.744.256-3.264.768-4.56.528-1.312 1.28-2.328 2.256-3.048.976-.72 2.144-1.08 3.504-1.08 1.36 0 2.528.36 3.504 1.08.976.72 1.72 1.736 2.232 3.048.528 1.296.792 2.816.792 4.56 0 1.744-.264 3.272-.792 4.584-.512 1.296-1.256 2.304-2.232 3.024-.976.72-2.144 1.08-3.504 1.08Zm0-1.896c1.328 0 2.4-.592 3.216-1.776.832-1.184 1.248-2.856 1.248-5.016s-.416-3.832-1.248-5.016c-.816-1.184-1.888-1.776-3.216-1.776-1.344 0-2.424.592-3.24 1.776-.816 1.184-1.224 2.856-1.224 5.016s.408 3.832 1.224 5.016c.816 1.184 1.896 1.776 3.24 1.776Zm9.207 1.608v-1.728h3.048v-7.848c0-.4-.192-.6-.576-.6h-2.16v-1.728h2.904c.528 0 .952.144 1.272.432.32.288.48.712.48 1.272v.504h.096c.192-.8.552-1.416 1.08-1.848.544-.432 1.296-.648 2.256-.648h2.184v2.136h-2.472c-.976 0-1.728.328-2.256.984-.528.64-.792 1.464-.792 2.472v4.872h3.744V114h-8.808Zm19.358-3.504c-.832 0-1.576-.152-2.232-.456l-.816.984c-.176.24-.224.48-.144.72.096.224.328.336.696.336h3.144c1.424 0 2.576.28 3.456.84.88.544 1.32 1.416 1.32 2.616 0 .72-.184 1.384-.552 1.992-.368.608-.952 1.096-1.752 1.464-.784.384-1.816.576-3.096.576-1.664 0-3-.312-4.008-.936-1.008-.624-1.512-1.576-1.512-2.856 0-.464.112-.896.336-1.296.24-.384.536-.728.888-1.032-.464-.288-.752-.72-.864-1.296-.096-.576.08-1.144.528-1.704l1.08-1.344c-.768-.8-1.152-1.784-1.152-2.952 0-.768.184-1.48.552-2.136a4.133 4.133 0 0 1 1.584-1.608c.704-.4 1.552-.6 2.544-.6.64 0 1.232.096 1.776.288h4.464v1.512l-2.232.072v.168c.416.688.624 1.456.624 2.304 0 .768-.184 1.488-.552 2.16-.352.656-.88 1.184-1.584 1.584-.688.4-1.52.6-2.496.6Zm0-1.728c.784 0 1.424-.232 1.92-.696.512-.464.768-1.104.768-1.92 0-.816-.256-1.448-.768-1.896-.496-.464-1.136-.696-1.92-.696-.8 0-1.456.232-1.968.696-.512.448-.768 1.08-.768 1.896 0 .816.256 1.456.768 1.92.512.464 1.168.696 1.968.696Zm-3.504 6.936c0 .704.328 1.232.984 1.584.656.352 1.504.528 2.544.528 1.008 0 1.824-.2 2.448-.6.64-.4.96-.936.96-1.608 0-.528-.224-.976-.672-1.344-.448-.352-1.272-.528-2.472-.528h-2.712c-.72.528-1.08 1.184-1.08 1.968Zm18.111-1.656c-.496 0-.92-.168-1.272-.504a1.656 1.656 0 0 1-.528-1.248c0-.48.176-.888.528-1.224a1.776 1.776 0 0 1 1.272-.504c.496 0 .92.168 1.272.504.352.336.528.744.528 1.224 0 .496-.176.912-.528 1.248a1.776 1.776 0 0 1-1.272.504Zm14.246-14.064c-.48 0-.879-.16-1.199-.48-.32-.32-.48-.704-.48-1.152 0-.464.16-.848.48-1.152.32-.32.719-.48 1.199-.48a1.6 1.6 0 0 1 1.177.48c.336.304.504.688.504 1.152 0 .448-.168.832-.504 1.152a1.6 1.6 0 0 1-1.177.48ZM169.963 114v-1.728h3.792v-7.848c0-.4-.2-.6-.6-.6h-2.784v-1.728h3.264c1.424 0 2.136.712 2.136 2.136v8.04h3.791V114h-9.599Zm19.19.288c-1.12 0-2.112-.256-2.976-.768-.864-.512-1.544-1.232-2.04-2.16-.496-.944-.744-2.048-.744-3.312 0-1.264.248-2.36.744-3.288.496-.944 1.176-1.672 2.04-2.184.864-.512 1.856-.768 2.976-.768 1.12 0 2.112.256 2.976.768.864.512 1.544 1.24 2.04 2.184.496.928.744 2.024.744 3.288 0 1.264-.248 2.368-.744 3.312-.496.928-1.176 1.648-2.04 2.16-.864.512-1.856.768-2.976.768Zm0-1.92a3.86 3.86 0 0 0 1.872-.456c.56-.304 1-.776 1.32-1.416.336-.64.504-1.456.504-2.448s-.168-1.808-.504-2.448c-.32-.64-.76-1.112-1.32-1.416a3.86 3.86 0 0 0-1.872-.456 3.81 3.81 0 0 0-1.848.456c-.56.304-1.008.776-1.344 1.416-.336.64-.504 1.456-.504 2.448 0 1.488.36 2.584 1.08 3.288.72.688 1.592 1.032 2.616 1.032ZM42 83h51v51H42z" fill="#fff"/><path d="m44.04 83.5 21.083-11h48.838l-21.084 11H44.04Z" stroke="#fff"/></svg>