<svg width="240" height="200" fill="none" xmlns="http://www.w3.org/2000/svg"><rect x="49.767" y="96.535" width="31.15" height="31.15" rx="6.3" fill="#fff"/><path fill-rule="evenodd" clip-rule="evenodd" d="M35.3 73a6.3 6.3 0 0 0-6.3 6.3v26.775a6.3 6.3 0 0 0 6.3 6.3h4.725v-18.27a6.3 6.3 0 0 1 6.3-6.3h22.05V79.3a6.3 6.3 0 0 0-6.3-6.3H35.3Z" fill="#fff"/><path d="M108.807 92.904c-4.632 0-9.072 3.36-9.072 9.168 0 5.88 4.392 9.192 9 9.192 3.336 0 6.096-1.632 7.608-4.104l-1.272-.96c-1.152 2.352-3.48 3.624-6.192 3.624-3.888 0-7.512-2.64-7.512-7.728 0-5.16 3.696-7.752 7.512-7.752 2.592 0 4.992 1.2 6.168 3.576l1.248-.984c-1.536-2.64-4.488-4.032-7.488-4.032Zm16.133 5.16c-3.648 0-6.552 2.664-6.552 6.6 0 3.936 2.904 6.6 6.552 6.6 3.648 0 6.576-2.664 6.576-6.6 0-3.936-2.928-6.6-6.576-6.6Zm-4.968 6.6c0-3.096 2.04-5.16 4.968-5.16s4.992 2.064 4.992 5.16-2.064 5.16-4.992 5.16c-2.856 0-4.968-2.064-4.968-5.16Zm14.537-6.24v12.48h1.56v-6.72c0-2.856 1.224-4.704 3.624-4.704 1.992 0 3.144 1.128 3.144 3.744v7.68h1.56v-7.2c0-2.568 1.272-4.224 3.624-4.224 1.992 0 3.144 1.128 3.144 3.672v7.752h1.56v-8.136c0-3.096-1.824-4.704-4.416-4.704-2.16 0-3.6 1.152-4.32 2.472-.672-1.464-2.016-2.472-4.008-2.472-1.704 0-3.096.768-3.912 2.184v-1.824h-1.56Zm28.586 12.84c3.888 0 6.336-2.952 6.336-6.6 0-3.648-2.448-6.6-6.336-6.6-2.328 0-4.056 1.032-5.088 2.568v-2.208h-1.56v17.64h1.56v-7.368c1.032 1.536 2.736 2.568 5.088 2.568Zm-5.136-6.6c0-2.784 1.8-5.16 4.968-5.16 3.216 0 4.92 2.376 4.92 5.16 0 2.784-1.704 5.16-4.92 5.16-3.168 0-4.968-2.352-4.968-5.16Zm13.824 3.12c0 2.064 1.704 3.48 4.128 3.48 1.848 0 3.624-.6 4.704-2.16l.576 1.8h1.32l-.36-2.184v-6.648c0-2.592-1.824-4.008-4.896-4.008-2.76 0-5.016 1.584-5.136 3.984l1.464.576c0-2.208 1.68-3.216 3.672-3.216 1.68 0 3.336.552 3.336 2.232 0 1.44-.552 1.68-4.824 2.448-2.376.432-3.984 1.584-3.984 3.696Zm1.704-.048c0-1.512 1.176-2.064 2.712-2.376 3.144-.648 3.96-.744 4.392-1.2v1.68c0 2.328-1.656 4.104-4.368 4.104-1.728 0-2.736-.96-2.736-2.208Zm12.374-9.312v12.48h1.56v-6.816c0-2.976 1.584-4.608 4.128-4.608 2.232 0 3.456 1.32 3.456 3.696v7.728h1.56v-7.968c0-2.976-1.8-4.848-4.848-4.848-1.992 0-3.384.744-4.296 2.208v-1.872h-1.56Zm12.505 0 5.544 12.288-2.328 5.352h1.68l7.632-17.64h-1.704l-4.416 10.512-4.68-10.512h-1.728Z" fill="#fff"/></svg>