<svg width="240" height="200" fill="none" xmlns="http://www.w3.org/2000/svg"><path d="M93.728 116.432c.896.16 1.656.632 2.28 1.416.624.784.936 1.672.936 2.664 0 .848-.224 1.616-.672 2.304-.432.672-1.064 1.208-1.896 1.608-.832.384-1.8.576-2.904.576H84.8v-16.68h6.36c1.136 0 2.112.192 2.928.576.816.384 1.432.904 1.848 1.56.416.64.624 1.36.624 2.16 0 .96-.256 1.76-.768 2.4-.512.64-1.2 1.112-2.064 1.416Zm-6.192-1.104h3.384c.896 0 1.592-.2 2.088-.6.512-.416.768-1.008.768-1.776 0-.752-.256-1.336-.768-1.752-.496-.432-1.192-.648-2.088-.648h-3.384v4.776Zm3.696 7.44c.928 0 1.656-.224 2.184-.672.528-.448.792-1.072.792-1.872 0-.816-.28-1.464-.84-1.944-.56-.48-1.304-.72-2.232-.72h-3.6v5.208h3.696Zm11.421-9.072c.4-.672.928-1.192 1.584-1.56.672-.384 1.464-.576 2.376-.576v2.832h-.696c-1.072 0-1.888.272-2.448.816-.544.544-.816 1.488-.816 2.832V125h-2.736v-13.224h2.736v1.92Zm5.563 4.632c0-1.328.272-2.504.816-3.528.56-1.024 1.312-1.816 2.256-2.376a6.042 6.042 0 0 1 3.168-.864c1.04 0 1.944.208 2.712.624.784.4 1.408.904 1.872 1.512v-1.92h2.76V125h-2.76v-1.968c-.464.624-1.096 1.144-1.896 1.56-.8.416-1.712.624-2.736.624a5.875 5.875 0 0 1-3.12-.864c-.944-.592-1.696-1.408-2.256-2.448-.544-1.056-.816-2.248-.816-3.576Zm10.824.048c0-.912-.192-1.704-.576-2.376-.368-.672-.856-1.184-1.464-1.536a3.862 3.862 0 0 0-1.968-.528c-.704 0-1.36.176-1.968.528-.608.336-1.104.84-1.488 1.512-.368.656-.552 1.44-.552 2.352 0 .912.184 1.712.552 2.4.384.688.88 1.216 1.488 1.584.624.352 1.28.528 1.968.528.704 0 1.36-.176 1.968-.528.608-.352 1.096-.864 1.464-1.536.384-.688.576-1.488.576-2.4Zm13.026-6.816c1.04 0 1.968.216 2.784.648a4.59 4.59 0 0 1 1.944 1.92c.464.848.696 1.872.696 3.072v7.8h-2.712v-7.392c0-1.184-.296-2.088-.888-2.712-.592-.64-1.4-.96-2.424-.96s-1.84.32-2.448.96c-.592.624-.888 1.528-.888 2.712V125h-2.736v-13.224h2.736v1.512a4.549 4.549 0 0 1 1.704-1.272 5.57 5.57 0 0 1 2.232-.456Zm8.002 6.768c0-1.328.272-2.504.816-3.528.56-1.024 1.312-1.816 2.256-2.376.96-.576 2.024-.864 3.192-.864.864 0 1.712.192 2.544.576.848.368 1.52.864 2.016 1.488v-6.384h2.76V125h-2.76v-1.992c-.448.64-1.072 1.168-1.872 1.584-.784.416-1.688.624-2.712.624a6.042 6.042 0 0 1-3.168-.864c-.944-.592-1.696-1.408-2.256-2.448-.544-1.056-.816-2.248-.816-3.576Zm10.824.048c0-.912-.192-1.704-.576-2.376-.368-.672-.856-1.184-1.464-1.536a3.862 3.862 0 0 0-1.968-.528c-.704 0-1.36.176-1.968.528-.608.336-1.104.84-1.488 1.512-.368.656-.552 1.44-.552 2.352 0 .912.184 1.712.552 2.4.384.688.88 1.216 1.488 1.584.624.352 1.28.528 1.968.528.704 0 1.36-.176 1.968-.528.608-.352 1.096-.864 1.464-1.536.384-.688.576-1.488.576-2.4ZM119 66l9.526 16.5h-19.052L119 66Z" fill="#fff"/><path d="m119 80 9.526 16.5h-19.052L119 80Z" fill="#fff"/></svg>