<?xml version="1.0" encoding="UTF-8"?>
<svg width="140px" height="40px" viewBox="0 0 140 40" version="1.1" xmlns="http://www.w3.org/2000/svg" xmlns:xlink="http://www.w3.org/1999/xlink">
    <title>netlify-logo</title>
    <g id="netlify-logo" stroke="none" stroke-width="1" fill="none" fill-rule="evenodd" fill-opacity="0.8">
        <g id="netlify" transform="translate(24.000000, 5.000000)" fill="#000000" fill-rule="nonzero">
            <path d="M37.2927769,10.8133461 L37.3636417,12.0963281 C38.1720176,11.1040313 39.2333352,10.6078828 40.5470178,10.6078828 C42.8234906,10.6078828 43.982182,11.9317234 44.0225124,14.5794063 L44.0225124,21.9154008 L41.5680025,21.9154008 L41.5680025,14.7229977 C41.5680025,14.0184664 41.4181948,13.4972188 41.1185844,13.1580859 C40.8189723,12.8195375 40.3286452,12.6502633 39.6481816,12.6502633 C38.6577347,12.6502633 37.9196518,13.1055531 37.4356645,14.0149641 L37.4356645,21.9154008 L34.98,21.9154008 L34.98,10.8133461 L37.2939247,10.8133461 L37.2927769,10.8133461 Z M51.3388051,22.1208649 C49.7831289,22.1208649 48.5213026,21.6235493 47.5550562,20.6283328 C46.5882311,19.6331172 46.1048198,18.307525 46.1048198,16.6521399 L46.1048198,16.3445282 C46.1048198,15.236657 46.3151228,14.2461109 46.736309,13.3740571 C47.1569166,12.5020032 47.7486506,11.8231547 48.5097801,11.3369289 C49.2709097,10.8518711 50.1196168,10.60905 51.0564793,10.60905 C52.5447428,10.60905 53.695367,11.0911899 54.5066248,12.0554687 C55.3190321,13.020332 55.7246618,14.3844493 55.7246618,16.1495703 L55.7246618,17.155293 L48.5800731,17.155293 C48.6549753,18.0717086 48.9557403,18.7966696 49.4846697,19.330175 C50.0136,19.8636805 50.6790849,20.1304336 51.4805449,20.1304336 C52.6052431,20.1304336 53.521363,19.6693071 54.2289065,18.7453031 L55.5523834,20.0282852 C55.1144912,20.6913735 54.5302466,21.2062 53.7996548,21.5721828 C53.0684878,21.9381657 52.2485878,22.1208649 51.3393812,22.1208649 L51.3388051,22.1208649 Z M51.0461081,12.6099883 C50.3719826,12.6099883 49.8286471,12.8493071 49.4143767,13.3279446 C48.9995287,13.8065821 48.7356421,14.4737555 48.6209821,15.328882 L53.299535,15.328882 L53.299535,15.1438485 C53.2453771,14.3091508 53.0264267,13.6787508 52.6426942,13.2508953 C52.2583838,12.8236234 51.7265734,12.6099883 51.0461081,12.6099883 Z M60.7057069,8.11546563 L60.7057069,10.8139305 L62.6358966,10.8139305 L62.6358966,12.6607703 L60.7057069,12.6607703 L60.7057069,18.8579578 C60.7057069,19.2817274 60.7886754,19.5875883 60.9534635,19.776125 C61.1182492,19.9640773 61.4132504,20.0580539 61.8378937,20.0580539 C62.1269993,20.0572405 62.4150576,20.0227655 62.696396,19.9553219 L62.696396,21.8844649 C62.137504,22.0420649 61.5987785,22.1202813 61.079646,22.1202813 C59.1938191,22.1202813 58.2506185,21.0637766 58.2506185,18.9501836 L58.2506185,12.6601867 L56.4506436,12.6601867 L56.4506436,10.8133461 L58.2494664,10.8133461 L58.2494664,8.11488204 L60.7045549,8.11488204 L60.7057069,8.11546563 Z M67.1225832,21.9159844 L64.6669195,21.9159844 L64.6669195,6.15597029 L67.1225832,6.15597029 L67.1225832,21.9159844 Z M72.4072735,21.9159844 L69.951609,21.9159844 L69.951609,10.8139305 L72.4072735,10.8139305 L72.4072735,21.9159844 Z M69.8000757,7.93043124 C69.8000757,7.54810465 69.9193431,7.2299859 70.1584566,6.97665859 C70.3981469,6.72391485 70.7398184,6.59725077 71.1840504,6.59725077 C71.6288594,6.59725077 71.9722607,6.72391485 72.2154072,6.97665859 C72.4574017,7.2299859 72.578399,7.54810465 72.578399,7.93101482 C72.578399,8.30692029 72.4574017,8.61978593 72.2154072,8.86961089 C71.9722607,9.11943671 71.6288594,9.24434919 71.1840504,9.24434919 C70.7398184,9.24434919 70.3981469,9.11943671 70.1584566,8.86961089 C69.9193431,8.62036951 69.8000757,8.30692029 69.8000757,7.93101482 L69.8000757,7.93043124 Z M75.9438445,21.9159844 L75.9438445,12.6601867 L74.2763893,12.6601867 L74.2763893,10.8133461 L75.9438445,10.8133461 L75.9438445,9.79770075 C75.9438445,8.56608515 76.2803324,7.61581485 76.9538819,6.94513825 C77.6280099,6.27504608 78.5706344,5.94 79.782906,5.94 C80.2144635,5.94 80.6725256,6.00128907 81.1576666,6.12444995 L81.0971908,8.07402266 C80.7873283,8.01575831 80.4725753,7.9883897 80.1574506,7.9923039 C78.9849301,7.9923039 78.3989574,8.60402576 78.3989574,9.8286375 L78.3989574,10.8133461 L80.6218475,10.8133461 L80.6218475,12.6601867 L78.3989574,12.6601867 L78.3989574,21.9154008 L75.9438698,21.9154008 L75.9438445,21.9159844 Z M86.2401186,18.3454656 L88.4630019,10.8139305 L91.08,10.8139305 L86.7356318,23.5988039 C86.0684213,25.4660752 84.9368056,26.4 83.3402186,26.4 C82.982989,26.4 82.5888911,26.3381299 82.1579079,26.2149665 L82.1579079,24.2858243 L82.6228791,24.3167636 C83.2422748,24.3167636 83.7089775,24.2023573 84.0224129,23.9729621 C84.3352823,23.7441495 84.5830305,23.3594886 84.7651083,22.8189784 L85.1183006,21.8646222 L81.2786605,10.8139305 L83.9261921,10.8139305 L86.2401186,18.3454656 Z" id="Shape"></path>
            <path d="M21.0462436,10.0776378 L21.0356801,10.0731523 C21.0295711,10.0707826 21.0235385,10.0686668 21.0182356,10.0632757 C21.0006043,10.0443689 20.9927645,10.0183445 20.9970068,9.99283631 L21.5830993,6.41349849 L24.3315901,9.15972753 L21.4731595,10.3745506 C21.4653536,10.3777666 21.4566991,10.3793746 21.4481381,10.3790361 L21.4367686,10.3790361 C21.4330353,10.3766664 21.4292172,10.3737042 21.4216149,10.3661635 C21.3152352,10.2478502 21.1880265,10.1500449 21.046303,10.0776048 L21.0462436,10.0776378 Z M25.0328829,9.85951429 L27.9716857,12.795086 C28.5820385,13.4055282 28.8875959,13.7099918 28.9990528,14.0629269 C29.0157422,14.1151957 29.0293771,14.1674409 29.04,14.2212179 L22.0167487,11.2500491 C22.0130154,11.2484411 22.0091973,11.2469177 22.0053791,11.2455636 C21.9773287,11.2342059 21.9447219,11.2213334 21.9447219,11.1925499 C21.9447219,11.1637665 21.9780753,11.1501323 22.0061258,11.1387831 L22.0152384,11.1350593 L25.0328829,9.85951429 Z M28.9202001,15.163388 C28.768558,15.4481603 28.4728564,15.7435344 27.9724434,16.244157 L24.6590881,19.5531134 L20.3737165,18.661688 L20.3509775,18.6572024 C20.3130593,18.6511089 20.2728842,18.6443299 20.2728842,18.6102485 C20.2399805,18.2532934 20.0601105,17.9260315 19.7762613,17.7067054 C19.7588167,17.6892881 19.7633645,17.6620195 19.7687099,17.6370276 C19.7687099,17.6333038 19.7687099,17.6294954 19.7702372,17.6263809 L20.5762075,12.6837734 L20.5791772,12.6671093 C20.5836741,12.6292364 20.5905467,12.5853123 20.6246722,12.5853123 C20.9735712,12.5419552 21.2904404,12.3605045 21.5041906,12.0816607 C21.5109784,12.0741285 21.5155601,12.0657499 21.5246642,12.0612051 C21.548922,12.049839 21.5777361,12.0612051 21.6027575,12.0718518 L28.9194339,15.1634431 L28.9202001,15.163388 Z M23.8970922,20.3142721 L18.4486347,25.7567447 L19.3812267,20.0310165 L19.382754,20.0234842 C19.3835066,20.0159519 19.3851297,20.0083435 19.3872509,20.0015221 C19.3948023,19.9833431 19.4145462,19.9757685 19.433501,19.9681939 L19.4426136,19.9644701 C19.6468109,19.8774403 19.8274105,19.743244 19.9695659,19.5729089 C19.9877656,19.5517001 20.0097495,19.5312529 20.0378,19.5274614 C20.0450968,19.5262765 20.052504,19.5262765 20.0597839,19.5274614 L23.8962989,20.3151277 L23.8970922,20.3142721 Z M17.2954046,26.9087071 L16.68126,27.5221783 L9.89153675,17.7202745 C9.88907619,17.7167199 9.88653078,17.7131653 9.88398536,17.7096277 C9.8734219,17.6952318 9.86200147,17.6808443 9.86426689,17.6641802 C9.86426689,17.6520609 9.87266676,17.6414649 9.88094783,17.6323754 L9.88849923,17.6225158 C9.90897284,17.5922089 9.9264174,17.5619275 9.94536376,17.5293551 L9.96052594,17.5028398 L9.96290166,17.5004701 C9.97357543,17.4822911 9.98337527,17.4648654 10.0015665,17.4550226 C10.0174838,17.4474904 10.0394847,17.4505371 10.0569208,17.4542719 L17.5790689,19.0038561 C17.6001025,19.0070721 17.6199398,19.01573 17.6366886,19.028848 C17.6465733,19.0387161 17.6488302,19.0493036 17.6510956,19.061423 C17.7574523,19.4634066 18.0458035,19.7926244 18.4305301,19.9513344 C18.4517588,19.9619811 18.4426717,19.9854158 18.4329058,20.0104077 C18.4279846,20.0213845 18.4241241,20.032776 18.4215363,20.0444891 C18.3267603,20.6200907 17.5139657,25.5717869 17.2956032,26.908548 L17.2954046,26.9087071 Z M16.012523,28.189424 C15.5598756,28.6370295 15.2929864,28.8740861 14.9912209,28.9695132 C14.6936841,29.0634956 14.3743645,29.0634956 14.076826,28.9695132 C13.7235031,28.8574229 13.4179475,28.5529601 12.8075921,27.9425213 L5.98905733,21.1314759 L7.77008143,18.3723718 C7.77848129,18.3587375 7.78676237,18.3466182 7.80040579,18.336767 C7.81935215,18.3231328 7.84665595,18.3292347 7.86940346,18.336767 C8.27819686,18.4599628 8.71710844,18.4377451 9.11134208,18.2739106 C9.13181569,18.2663883 9.15228929,18.2610381 9.16820661,18.275434 C9.17626709,18.2826278 9.18329243,18.2908202 9.18943536,18.2996642 L16.012523,28.1901941 L16.012523,28.189424 Z M5.33169497,20.4748355 L3.76751889,18.912378 L6.8564443,17.5960656 C6.86433508,17.5925957 6.87284524,17.5908184 6.88146571,17.5907338 C6.90724226,17.5907338 6.92241293,17.6164874 6.93606483,17.6399559 C6.96711039,17.6876631 6.99998016,17.7341482 7.03463003,17.7793122 L7.04451471,17.7914316 C7.0536273,17.8043041 7.04748436,17.8171851 7.03840572,17.8293045 L5.33244417,20.4748034 L5.33169497,20.4748355 Z M3.07527758,18.2208979 L1.09636328,16.244157 C0.759720814,15.9078852 0.515578671,15.6640106 0.345740879,15.4542183 L6.36285214,16.7008529 C6.37040354,16.7022916 6.37798887,16.7035611 6.38559966,16.7045767 C6.42275421,16.7106702 6.46368446,16.7174577 6.46368446,16.7522924 C6.46368446,16.7901653 6.41895306,16.8075826 6.38103488,16.8219701 L6.3635988,16.8295023 L3.07527758,18.2208979 Z M0,14.4378257 C0.00688958575,14.310488 0.0297872767,14.1845256 0.0682332015,14.0629269 C0.180447669,13.7099918 0.485246251,13.4055282 1.09635862,12.795086 L3.62876161,10.2654664 C4.79475443,11.9558287 5.96390864,13.6440125 7.13621663,15.3300095 C7.15669024,15.3572695 7.17942926,15.3875763 7.1559351,15.4102916 C7.04523252,15.532228 6.93453928,15.6655247 6.85644345,15.8101832 C6.84795874,15.8287684 6.83492622,15.8449332 6.81852527,15.8571456 C6.80864058,15.8632391 6.79805166,15.8608694 6.78668215,15.858669 L6.7851549,15.858669 L0,14.4370691 L0,14.4378257 Z M4.30660097,9.58837629 L7.71018276,6.18702007 C8.03090231,6.32713298 9.19626301,6.81866688 10.2372777,7.25794206 C11.0258103,7.59118743 11.7445893,7.89413446 11.9705346,7.99259392 C11.9932736,8.00168342 12.0137472,8.01076446 12.0236065,8.03348822 C12.0297154,8.04712247 12.0265761,8.06453979 12.0236065,8.07893573 C11.9141146,8.57767945 12.0631452,9.09798662 12.4201479,9.46341086 C12.442887,9.48613462 12.4201479,9.51869264 12.4004295,9.5467313 L12.389866,9.56264216 L8.93245212,14.9119584 C8.92333954,14.9270991 8.91501603,14.9399801 8.89984537,14.9498313 C8.88164566,14.9611974 8.85586063,14.9559248 8.83464036,14.950582 C8.70016956,14.9153919 8.56193155,14.8965697 8.42293501,14.8945385 C8.29859071,14.8945385 8.1636295,14.9172623 8.02715291,14.9422542 L8.02640032,14.9422542 C8.01123814,14.9446239 7.99758624,14.947586 7.9854531,14.9385303 C7.97204726,14.9275535 7.9605335,14.914554 7.95133608,14.8999042 L4.30588147,9.58846092 L4.30660097,9.58837629 Z M8.39938824,5.50008387 L12.8075921,1.09672509 C13.4179475,0.48704035 13.7235031,0.181820098 14.076826,0.0704855386 C14.3743645,-0.0234951795 14.6936841,-0.0234951795 14.9912209,0.0704855386 C15.3445446,0.181820098 15.6501011,0.48704035 16.2604565,1.09672509 L17.2157934,2.05101285 L14.0806179,6.90122055 C14.0728968,6.91533721 14.0622824,6.92771044 14.0495299,6.9375701 C14.030575,6.95044266 14.0040349,6.94510237 13.9812873,6.9375701 C13.4794659,6.78544872 12.9348263,6.89028607 12.525534,7.2177976 C12.5050604,7.23900644 12.4747445,7.22688711 12.4489595,7.2154279 C12.0395297,7.0374463 8.8550707,5.69311139 8.39938824,5.49998231 L8.39938824,5.50008387 Z M17.8814971,2.71598444 L20.7763229,5.60762945 L20.0787735,9.92313319 L20.0787735,9.9344993 C20.0781618,9.94435896 20.0760584,9.95402396 20.0726645,9.96328273 C20.0651131,9.97842344 20.0499255,9.98146173 20.0347463,9.98600649 C19.8856072,10.0311324 19.7451436,10.1010293 19.6192509,10.1927681 C19.6138207,10.1966612 19.6088062,10.2009775 19.6040887,10.2056407 C19.5956888,10.2147302 19.5874077,10.2230495 19.5737643,10.2246124 C19.5626494,10.2249055 19.5515853,10.2231342 19.5411576,10.2192411 L15.129923,8.34701851 L15.1215231,8.34329469 C15.0934727,8.33193705 15.0601023,8.31829433 15.0601023,8.28952783 C15.034173,8.04397669 14.9538907,7.80726116 14.8250597,7.59653281 C14.8038224,7.56169818 14.7803283,7.5253317 14.798511,7.48974723 L17.8814971,2.71598444 Z M14.9002367,9.23392462 L19.0354849,10.9834533 C19.0582239,10.9941 19.0832538,11.0039004 19.0931046,11.0273774 C19.0970924,11.0415026 19.0970924,11.0564232 19.0931046,11.0705483 C19.080963,11.1311366 19.0703655,11.2000602 19.0703655,11.2697379 L19.0703655,11.3856156 C19.0703655,11.414399 19.0407963,11.4265099 19.013501,11.4378844 L19.0051011,11.4408466 C18.3500118,11.7203166 9.80807774,15.3587303 9.79518776,15.3587303 C9.78229949,15.3587303 9.76864759,15.3587303 9.7557678,15.3458577 C9.73302877,15.3231424 9.7557678,15.2913207 9.7762414,15.2625373 C9.77988983,15.257544 9.78336856,15.2524491 9.78680487,15.2473965 L13.1850778,9.9912376 L13.1911868,9.9821481 C13.2109052,9.95034331 13.2336443,9.91473852 13.2700352,9.91473852 L13.3041607,9.92007035 C13.3814988,9.93071709 13.4497346,9.94050904 13.5187323,9.94050904 C14.0343108,9.94050904 14.5119806,9.68982073 14.8000976,9.26114827 C14.8069703,9.24968906 14.8156671,9.23946549 14.8258742,9.23084146 C14.8463478,9.21570076 14.8766722,9.22330919 14.9001748,9.23380359 L14.9002367,9.23392462 Z M10.1644916,16.1903842 L19.4752424,12.2240291 C19.4752424,12.2240291 19.4888858,12.2240291 19.5017826,12.2369016 C19.5525806,12.2876471 19.5958025,12.3217243 19.6375006,12.3535376 L19.6579742,12.3664101 C19.6769206,12.3770569 19.6958924,12.3891254 19.6973942,12.4088278 C19.6973942,12.4163601 19.6973942,12.4209471 19.6957821,12.42776 L18.8981505,17.3218936 L18.8951809,17.3415875 C18.8898355,17.3794604 18.8846174,17.4226313 18.8489307,17.4226313 C18.417204,17.4517448 18.0276675,17.6917805 17.8079151,18.0641251 L17.8041819,18.0702186 C17.7936184,18.0876444 17.7837083,18.1043 17.7662637,18.1133895 C17.7503464,18.1209218 17.7298728,18.117875 17.7131918,18.1141402 L10.2880944,16.58425 C10.280543,16.5827266 10.1728474,16.1911747 10.1644916,16.1904172 L10.1644916,16.1903842 Z" id="path14"></path>
        </g>
    </g>
</svg>