<?xml version="1.0" encoding="UTF-8"?>
<svg width="140px" height="40px" viewBox="0 0 140 40" version="1.1" xmlns="http://www.w3.org/2000/svg" xmlns:xlink="http://www.w3.org/1999/xlink">
    <title>md-logo</title>
    <g id="md-logo" stroke="none" stroke-width="1" fill="none" fill-rule="evenodd" fill-opacity="0.8">
        <g id="markdown-svgrepo-com-white" transform="translate(39.000000, 1.000000)" fill="#000000" fill-rule="nonzero">
            <path d="M57.2091017,37.8941318 L4.4148503,37.8941318 C2.02347305,37.8941318 0,35.8706587 0,33.4792814 L0,4.4148503 C0,2.02347305 2.02347305,0 4.4148503,0 L57.0251496,0 C59.4165269,0 61.44,2.02347305 61.44,4.4148503 L61.44,33.4792814 C61.44,35.8706587 59.600479,37.8941318 57.2091017,37.8941318 L57.2091017,37.8941318 Z M4.4148503,2.94323354 C3.67904191,2.94323354 2.94323354,3.67904191 2.94323354,4.4148503 L2.94323354,33.4792814 C2.94323354,34.3990418 3.67904191,34.9508983 4.4148503,34.9508983 L57.0251496,34.9508983 C57.9449102,34.9508983 58.4967665,34.2150898 58.4967665,33.4792814 L58.4967665,4.4148503 C58.4967665,3.49508983 57.7609582,2.94323354 57.0251496,2.94323354 C57.2091017,2.94323354 4.4148503,2.94323354 4.4148503,2.94323354 L4.4148503,2.94323354 Z M8.82970061,29.064431 L8.82970061,8.82970061 L14.7161677,8.82970061 L20.6026347,16.1877844 L26.4891017,8.82970061 L32.375569,8.82970061 L32.375569,29.064431 L26.4891017,29.064431 L26.4891017,17.4754491 L20.6026347,24.833533 L14.7161677,17.4754491 L14.7161677,29.064431 L8.82970061,29.064431 L8.82970061,29.064431 Z M45.8040718,29.064431 L36.9743712,19.3149701 L42.8608382,19.3149701 L42.8608382,8.82970061 L48.7473053,8.82970061 L48.7473053,19.131018 L54.6337726,19.131018 L45.8040718,29.064431 L45.8040718,29.064431 Z" id="Shape"></path>
        </g>
    </g>
</svg>