<svg width="434" height="149" viewBox="0 0 434 149" fill="none" xmlns="http://www.w3.org/2000/svg">
<path d="M26.3543 0C22.89 -4.07213e-06 19.4597 0.683004 16.2596 2.00996C13.0595 3.33691 10.1525 5.28176 7.70471 7.73326C5.25696 10.1848 3.31657 13.0948 1.99452 16.2969C0.672476 19.499 -0.00528073 22.9304 3.09812e-05 26.3947V65.922C-0.000407711 69.1756 0.902165 72.3654 2.60726 75.1364C4.31235 77.9073 6.75303 80.1507 9.65759 81.6166L43.9642 98.8386V43.9238H98.8387L142.674 0H26.3543Z" fill="#FF364E"/>
<path d="M116.408 142.771C123.396 142.768 130.098 139.991 135.038 135.049C139.979 130.107 142.754 123.404 142.754 116.416V76.8808C142.751 73.624 141.843 70.4322 140.13 67.6621C138.418 64.8919 135.968 62.6526 133.056 61.1943L98.8386 43.9238V98.8387H43.9642L0.0888672 142.771H116.408Z" fill="#FF364E"/>
<path d="M156.495 80.8V69.6H178.895V47.2H190.095V69.6H212.495V80.8H190.095V103.2H178.895V80.8H156.495Z" fill="black" fill-opacity="0.82"/>
<path d="M156.495 80.8H155.495V81.8H156.495V80.8ZM156.495 69.6V68.6H155.495V69.6H156.495ZM178.895 69.6V70.6H179.895V69.6H178.895ZM178.895 47.2V46.2H177.895V47.2H178.895ZM190.095 47.2H191.095V46.2H190.095V47.2ZM190.095 69.6H189.095V70.6H190.095V69.6ZM212.495 69.6H213.495V68.6H212.495V69.6ZM212.495 80.8V81.8H213.495V80.8H212.495ZM190.095 80.8V79.8H189.095V80.8H190.095ZM190.095 103.2V104.2H191.095V103.2H190.095ZM178.895 103.2H177.895V104.2H178.895V103.2ZM178.895 80.8H179.895V79.8H178.895V80.8ZM157.495 80.8V69.6H155.495V80.8H157.495ZM156.495 70.6H178.895V68.6H156.495V70.6ZM179.895 69.6V47.2H177.895V69.6H179.895ZM178.895 48.2H190.095V46.2H178.895V48.2ZM189.095 47.2V69.6H191.095V47.2H189.095ZM190.095 70.6H212.495V68.6H190.095V70.6ZM211.495 69.6V80.8H213.495V69.6H211.495ZM212.495 79.8H190.095V81.8H212.495V79.8ZM189.095 80.8V103.2H191.095V80.8H189.095ZM190.095 102.2H178.895V104.2H190.095V102.2ZM179.895 103.2V80.8H177.895V103.2H179.895ZM178.895 79.8H156.495V81.8H178.895V79.8Z" fill="black" fill-opacity="0.7"/>
<g clip-path="url(#clip0_1201_6901)">
<path d="M403.484 143.347C400.822 143.347 398.344 141.584 397.47 138.806C396.383 135.348 398.195 131.626 401.518 130.495C413.559 126.392 421.339 115.407 421.339 102.506C421.339 86.1674 408.57 72.8739 392.874 72.8739C391.784 72.8739 390.611 72.9635 389.183 73.1564L382.994 73.9916L382.105 67.5593C378.302 39.9769 355.219 19.1764 328.412 19.1764C306.251 19.1764 286.522 32.9865 278.155 54.3605L276.58 58.3818L272.411 58.461C253.251 58.8278 237.663 75.3453 237.663 95.2795C237.663 109.832 245.78 123.103 258.34 129.088C261.518 130.603 262.916 134.512 261.46 137.821C260.005 141.129 256.251 142.581 253.072 141.071C236.019 132.945 225 114.973 225 95.2795C225 69.6535 243.968 48.1865 268.062 45.5498C279.163 21.3877 302.429 6 328.411 6C359.507 6 386.539 28.6949 393.549 59.7044C415.915 60.0816 434 79.1375 434 102.507C434 120.923 422.528 137.203 405.456 143.018C404.803 143.24 404.137 143.347 403.484 143.347Z" fill="#0071CE"/>
<path d="M306.654 146.198C306.653 146.196 306.652 146.196 306.651 146.196C306.649 146.196 306.648 146.194 306.646 146.194H306.644L306.643 146.193L306.641 146.191C306.641 146.191 306.639 146.191 306.639 146.189H306.638L306.636 146.187C306.638 146.186 306.634 146.186 306.634 146.186L306.633 146.184H306.631L306.629 146.182C306.631 146.184 306.628 146.181 306.628 146.181C306.628 146.181 306.624 146.179 306.623 146.179L306.621 146.177L306.619 146.175L306.618 146.174C306.613 146.172 306.614 146.172 306.613 146.172C306.611 146.174 306.611 146.17 306.61 146.17L306.608 146.169C306.608 146.169 306.606 146.167 306.605 146.167L306.603 146.165C306.601 146.163 306.598 146.163 306.596 146.163C306.595 146.163 306.591 146.162 306.59 146.162C306.588 146.16 306.588 146.16 306.586 146.16H306.585C306.583 146.158 306.581 146.158 306.58 146.158C306.578 146.157 306.575 146.157 306.575 146.157H306.573L306.57 146.155C306.568 146.155 306.568 146.153 306.568 146.153H306.567C306.469 146.117 306.365 146.095 306.256 146.089H306.253H306.249H306.246C306.246 146.089 306.246 146.089 306.244 146.089H306.243H306.241L306.239 146.088H306.236H306.233H306.231H306.23H306.228H306.225H306.223H306.225H306.223H306.221H306.22H306.218H306.216H306.215H306.213H306.211C303.475 146.088 301.237 143.769 301.22 140.928V83.0297H305.461H305.483C306.132 83.0589 306.575 82.5395 306.575 81.9152C306.575 81.4492 306.301 81.0502 305.911 80.8834L285.458 66.1894C285.092 65.9263 284.608 65.9263 284.241 66.1894L263.628 80.9986C263.242 81.2755 263.075 81.7828 263.214 82.2489C263.354 82.7149 263.767 83.0314 264.236 83.0314H268.499L268.502 140.944C268.524 144.948 271.613 148.215 275.544 148.318C275.588 148.323 275.631 148.327 275.676 148.327H306.21H306.228C306.509 148.322 306.763 148.205 306.952 148.017C306.952 148.017 306.952 148.017 306.953 148.016C306.956 148.012 306.96 148.009 306.961 148.007C306.963 148.005 306.965 148.005 306.966 148.002L306.968 148L306.97 147.998L306.971 147.997L306.973 147.995L306.975 147.993L306.976 147.992C306.98 147.99 306.978 147.99 306.98 147.988C306.98 147.988 306.98 147.988 306.981 147.986L306.983 147.985C306.983 147.985 306.983 147.985 306.985 147.983C307.17 147.783 307.285 147.513 307.287 147.214V147.211V147.209V147.207V147.206V147.204V147.202V147.2V147.197C307.279 146.757 307.023 146.372 306.654 146.198Z" fill="#DC8327"/>
<path d="M350.828 146.198C350.828 146.198 350.827 146.196 350.825 146.196C350.823 146.196 350.822 146.194 350.82 146.194H350.818L350.817 146.193L350.815 146.191H350.813L350.812 146.189L350.81 146.188C350.812 146.186 350.808 146.186 350.807 146.186L350.805 146.184H350.804C350.802 146.184 350.802 146.182 350.802 146.182C350.799 146.184 350.799 146.181 350.799 146.181L350.795 146.179L350.794 146.177H350.792L350.79 146.175L350.789 146.174C350.787 146.172 350.785 146.172 350.785 146.172C350.784 146.174 350.784 146.17 350.78 146.17L350.779 146.169L350.777 146.167C350.777 146.167 350.775 146.167 350.774 146.165C350.772 146.163 350.769 146.163 350.767 146.163C350.766 146.163 350.762 146.162 350.761 146.162C350.759 146.16 350.759 146.16 350.757 146.16C350.756 146.16 350.756 146.16 350.754 146.158C350.754 146.158 350.752 146.158 350.751 146.157C350.746 146.155 350.749 146.155 350.747 146.155C350.742 146.155 350.746 146.155 350.744 146.153C350.744 146.153 350.742 146.151 350.741 146.151L350.739 146.15H350.737C350.64 146.114 350.536 146.091 350.427 146.086H350.424H350.422H350.419H350.417H350.415H350.414L350.412 146.084H350.409H350.405H350.404H350.402H350.4H350.397H350.394H350.392H350.39H350.389H350.387H350.386H350.384H350.382H350.381H350.379C347.645 146.084 345.406 143.766 345.389 140.925V95.9952H349.65C349.665 95.9935 349.677 95.9935 349.693 95.9952C350.285 95.9952 350.764 95.4965 350.764 94.8808C350.764 94.4148 350.49 94.0158 350.1 93.8489L329.646 79.155C329.279 78.8919 328.795 78.8919 328.428 79.155L307.824 93.9624C307.437 94.2393 307.27 94.7467 307.409 95.2127C307.55 95.6788 307.963 95.9952 308.432 95.9952H312.675L312.678 140.942C312.696 144.948 315.791 148.217 319.723 148.318C319.766 148.323 319.809 148.325 319.852 148.325H350.386H350.404C350.685 148.32 350.939 148.203 351.127 148.016C351.127 148.016 351.127 148.016 351.129 148.014C351.132 148.01 351.139 148.007 351.137 148.005C351.139 148.004 351.141 148.004 351.142 148L351.144 147.998L351.146 147.997L351.147 147.995C351.147 147.995 351.149 147.995 351.149 147.993L351.15 147.992C351.152 147.992 351.152 147.99 351.152 147.99C351.157 147.988 351.155 147.988 351.155 147.986C351.155 147.986 351.155 147.986 351.157 147.985C351.157 147.985 351.157 147.985 351.159 147.983C351.159 147.983 351.159 147.983 351.16 147.981C351.345 147.782 351.461 147.512 351.463 147.213V147.209V147.207V147.206V147.204V147.202V147.2V147.199V147.195C351.453 146.757 351.197 146.372 350.828 146.198Z" fill="#F4B21B"/>
<path d="M395.118 146.198L395.115 146.196C395.113 146.196 395.112 146.194 395.11 146.194H395.108L395.107 146.193L395.105 146.191C395.103 146.191 395.103 146.191 395.103 146.189H395.102L395.1 146.188L395.098 146.186C395.098 146.186 395.097 146.186 395.097 146.184H395.095L395.093 146.182C395.092 146.184 395.092 146.181 395.09 146.181C395.092 146.179 395.088 146.179 395.087 146.179L395.085 146.177H395.083L395.082 146.175L395.08 146.174C395.075 146.172 395.077 146.172 395.077 146.172C395.075 146.174 395.075 146.17 395.072 146.17L395.07 146.169C395.072 146.167 395.069 146.167 395.067 146.167C395.067 146.167 395.065 146.167 395.065 146.165C395.064 146.163 395.06 146.163 395.059 146.163C395.057 146.163 395.054 146.162 395.052 146.162L395.049 146.16C395.049 146.16 395.047 146.16 395.045 146.158L395.042 146.157C395.037 146.155 395.037 146.155 395.039 146.155C395.034 146.155 395.034 146.155 395.036 146.153C395.034 146.153 395.034 146.151 395.034 146.151C395.032 146.151 395.031 146.15 395.031 146.15H395.029C394.931 146.114 394.827 146.091 394.718 146.086H394.717H394.713H394.708H394.707H394.705H394.703C394.702 146.084 394.702 146.084 394.7 146.084H394.697H394.694H394.692H394.69H394.689H394.685H394.682C394.682 146.084 394.682 146.084 394.68 146.084H394.679H394.677H394.675H394.674H394.672H394.67H394.677H394.675C391.941 146.084 389.702 143.766 389.686 140.925V108.956H393.937H393.958C394.561 108.94 395.05 108.465 395.05 107.841C395.05 107.375 394.776 106.976 394.386 106.809L373.932 92.1154C373.567 91.8522 373.081 91.8522 372.715 92.1154L352.102 106.923C351.716 107.2 351.549 107.707 351.687 108.173C351.828 108.639 352.241 108.956 352.71 108.956H356.961L356.964 140.942C356.986 144.948 360.079 148.219 364.009 148.318C364.052 148.323 364.095 148.325 364.138 148.325H394.672H394.69C394.971 148.32 395.226 148.203 395.414 148.016L395.416 148.014C395.419 148.01 395.424 148.007 395.424 148.005C395.425 148.004 395.427 148.004 395.429 148L395.43 147.998L395.432 147.997L395.434 147.995L395.435 147.993L395.437 147.992L395.439 147.99C395.444 147.988 395.44 147.988 395.442 147.986C395.442 147.986 395.442 147.986 395.444 147.985L395.445 147.983C395.445 147.983 395.445 147.983 395.447 147.981C395.632 147.782 395.748 147.512 395.749 147.213V147.209V147.207V147.206V147.204V147.202V147.2V147.199V147.195C395.743 146.757 395.485 146.372 395.118 146.198Z" fill="#F2D864"/>
</g>
<defs>
<clipPath id="clip0_1201_6901">
<rect width="209" height="142.77" fill="white" transform="translate(225 6)"/>
</clipPath>
</defs>
</svg>
