<svg width="40" height="40" viewBox="0 0 40 40" fill="none" xmlns="http://www.w3.org/2000/svg">
<path d="M7.41994 0C5.45218 0 3.56489 0.760564 2.17348 2.11419C0.782061 3.46782 0.00049 5.30363 0.00049 7.21794V17.9907C-0.000272408 18.8777 0.252683 19.7479 0.730932 20.5031C1.20918 21.2584 1.8938 21.8692 2.70852 22.2675L12.3075 26.977V12.0089H27.6937L39.9821 0.036125L7.41994 0Z" fill="#FF364E"/>
<path d="M32.5621 40C34.5299 40 36.4172 39.2137 37.8086 37.8134C39.2001 36.4131 39.9816 34.5135 39.9816 32.5332V21.389C39.9813 20.4715 39.728 19.5723 39.2498 18.7912C38.7717 18.0101 38.0876 17.378 37.2736 16.9651L27.6745 12.0928V27.577H12.2885L0 39.9626L32.5621 40Z" fill="#FF364E"/>
</svg>
